# xmcd
#
# Track frame offsets:
#	150
#	19525
#	38695
#	56914
#	75937
#	95947
#	115955
#
# Disc length: 1811 seconds
#
# Revision: 0
# Processed by: cddbd v1.5.1PL2 Copyright (c) Steve Scherf et al.
# Submitted via: dBpowerAMP V4.0
#
DISCID=50071107
DTITLE=Big Mack - Doin' It Live
DYEAR=1998
DGENRE=Gangsta
TTITLE0=Doin It Live(Clean Edit)
TTITLE1=Doin It Live(Street Mix)
TTITLE2=Doin It Live(Southern Mix)
TTITLE3=Doin It Live(Instrumental)
TTITLE4=Gotta Give It To Me(remix Street)
TTITLE5=Gotta Give It To Me(Clean Edit)
TTITLE6=Gotta Give It Me(Remix Instrumental)
EXTD=
EXTT0=
EXTT1=
EXTT2=
EXTT3=
EXTT4=
EXTT5=
EXTT6=
PLAYORDER=
